<svg width="12" height="12" viewBox="0 0 12 12" fill="none" xmlns="http://www.w3.org/2000/svg">
<g id="Camera">
<path id="Oval" fill-rule="evenodd" clip-rule="evenodd" d="M6.21852 11.1072C9.10521 11.1072 11.4453 8.76948 11.4453 5.88575C11.4453 3.00203 9.10521 0.664307 6.21852 0.664307C3.33183 0.664307 0.991699 3.00203 0.991699 5.88575C0.991699 8.76948 3.33183 11.1072 6.21852 11.1072Z" fill="#262C2D"/>
<path id="Oval_2" fill-rule="evenodd" clip-rule="evenodd" d="M6.21842 9.14912C8.02261 9.14912 9.48519 7.68804 9.48519 5.88572C9.48519 4.08339 8.02261 2.62231 6.21842 2.62231C4.41424 2.62231 2.95166 4.08339 2.95166 5.88572C2.95166 7.68804 4.41424 9.14912 6.21842 9.14912Z" fill="#121515"/>
<path id="Oval_3" opacity="0.4" fill-rule="evenodd" clip-rule="evenodd" d="M6.21829 5.2331C6.57913 5.2331 6.87165 4.94088 6.87165 4.58041C6.87165 4.21995 6.57913 3.92773 6.21829 3.92773C5.85746 3.92773 5.56494 4.21995 5.56494 4.58041C5.56494 4.94088 5.85746 5.2331 6.21829 5.2331Z" fill="#636F73"/>
</g>
</svg>
