<svg width="17" height="17" viewBox="0 0 17 17" fill="none" xmlns="http://www.w3.org/2000/svg">
<g id="Group 65">
<circle id="Ellipse 36" cx="8.56535" cy="8.53288" r="7.93785" stroke="black" stroke-width="0.337781"/>
<g id="Group">
<path id="Vector" d="M10.5921 6.84424L8.56543 10.222" stroke="#000001" stroke-width="0.675562" stroke-linecap="round" stroke-linejoin="round"/>
<path id="Vector_2" d="M12.6188 10.2219C12.8969 9.5546 13.0059 8.82898 12.9361 8.10945C12.8664 7.38991 12.6201 6.69872 12.2191 6.09722C11.8181 5.49573 11.2748 5.00254 10.6375 4.66143C10.0001 4.32032 9.28838 4.14185 8.56547 4.14185C7.84256 4.14185 7.13084 4.32032 6.49347 4.66143C5.8561 5.00254 5.31281 5.49573 4.91181 6.09722C4.51081 6.69872 4.26452 7.38991 4.19479 8.10945C4.12506 8.82898 4.23406 9.5546 4.5121 10.2219H12.6188Z" stroke="#000001" stroke-width="0.675562" stroke-linecap="round" stroke-linejoin="round"/>
</g>
</g>
</svg>
